External Loads File
version=1
nRows=86
nColumns=13
Range=5.000000e-03-10 seconds
endheader
time 	forceRightX 	forceRightY 	forceRightZ 	pointRightX 	pointRightY 	pointRightZ 	forceLeftX 	forceLeftY 	forceLeftZ 	pointLeftX 	pointLeftY 	pointLeftZ 		
5.005000 -95.988605 366.281660 -0.000000 0.333288 0.315641 -0.103112 31.218309 -40.667845 -0.000000 0.045777 0.306742 -0.340748
5.010000 -94.927971 399.236111 -0.000000 0.331272 0.304136 -0.102732 32.032395 -41.394600 -0.000000 0.047297 0.317143 -0.340722
5.015000 -91.335847 432.756442 -0.000000 0.328629 0.293011 -0.103331 33.052634 -41.763528 -0.000000 0.049339 0.327834 -0.340875
5.020000 -85.651924 466.394855 -0.000000 0.325690 0.282110 -0.103374 34.252403 -41.823841 -0.000000 0.051951 0.338243 -0.340787
5.025000 -76.517235 500.002721 -0.000000 0.322299 0.271049 -0.103343 35.450186 -41.741169 -0.000000 0.055130 0.348653 -0.340808
5.030000 -64.782082 532.938284 -0.000000 0.318433 0.260419 -0.102851 36.677767 -41.521099 -0.000000 0.058924 0.359030 -0.340697
5.035000 -51.180254 564.634498 -0.000000 0.314487 0.250117 -0.103249 37.945217 -41.222855 -0.000000 0.063232 0.369140 -0.340629
5.040000 -35.036870 594.697997 -0.000000 0.309739 0.240105 -0.103134 39.129237 -41.055939 -0.000000 0.068004 0.379046 -0.340615
5.045000 -16.755110 622.621256 -0.000000 0.304677 0.230451 -0.103041 40.129260 -41.157653 -0.000000 0.073438 0.388840 -0.340661
5.050000 2.861082 647.940847 -0.000000 0.299278 0.221005 -0.102919 40.813139 -41.581456 -0.000000 0.079318 0.398239 -0.340575
5.055000 23.430800 670.271347 -0.000000 0.293407 0.212183 -0.102864 41.005964 -42.334116 -0.000000 0.085704 0.407420 -0.340570
5.060000 44.992539 689.247929 -0.000000 0.287055 0.203920 -0.102519 40.542600 -43.375057 -0.000000 0.092528 0.416462 -0.340590
5.065000 65.718308 704.725602 -0.000000 0.280581 0.196246 -0.102662 39.443294 -44.500554 -0.000000 0.099765 0.424902 -0.340537
5.070000 85.714606 716.630258 -0.000000 0.273785 0.189149 -0.102844 37.670491 -45.599373 -0.000000 0.107370 0.432651 -0.340605
5.075000 106.592042 724.748347 -0.000000 0.266649 0.182579 -0.103043 35.127969 -46.597826 -0.000000 0.115627 0.440509 -0.340858
5.080000 130.125201 728.704691 -0.000000 0.259224 0.175939 -0.103142 31.728732 -47.349926 -0.000000 0.125714 0.447314 -0.342276
5.085000 143.023625 730.959740 -0.000000 0.251616 0.170316 -0.103194 28.388801 -47.056870 -0.000000 0.132270 0.453755 -0.340337
5.090000 159.903519 728.932247 -0.000000 0.243645 0.165260 -0.103270 24.232674 -46.125900 -0.000000 0.141118 0.459751 -0.340442
5.095000 175.599804 723.438038 -0.000000 0.235453 0.160593 -0.103161 19.672947 -44.088698 -0.000000 0.150190 0.465258 -0.340273
5.100000 189.711931 714.453455 -0.000000 0.227071 0.156582 -0.103032 14.815724 -40.649136 -0.000000 0.159444 0.470153 -0.340199
5.105000 202.219442 701.868420 -0.000000 0.218491 0.153077 -0.102843 9.758881 -35.498027 -0.000000 0.168865 0.474335 -0.340114
5.110000 213.449759 685.461584 -0.000000 0.209646 0.150261 -0.102622 4.615617 -28.375467 -0.000000 0.178581 0.477758 -0.340018
5.115000 222.529578 665.406050 -0.000000 0.200717 0.148108 -0.102287 -0.426898 -19.156600 -0.000000 0.188335 0.480440 -0.339950
5.120000 229.540369 641.649516 -0.000000 0.191772 0.146416 -0.101847 -5.253150 -7.964560 -0.000000 0.198184 0.482368 -0.340322
5.125000 234.276601 614.223885 -0.000000 0.182853 0.145341 -0.101282 -9.791486 4.778398 -0.000000 0.208098 0.483549 -0.340074
5.130000 236.626930 583.064305 -0.000000 0.173883 0.144861 -0.100825 -14.041554 18.306651 -0.000000 0.217878 0.484005 -0.339625
5.135000 236.512180 548.026114 -0.000000 0.164867 0.145361 -0.100463 -18.089589 31.602454 -0.000000 0.227385 0.484015 -0.339625
5.140000 233.535235 509.090339 -0.000000 0.156012 0.146575 -0.100069 -22.136835 43.663637 -0.000000 0.236546 0.483263 -0.339885
5.145000 227.399452 466.288105 -0.000000 0.147373 0.148291 -0.099705 -26.462169 53.794487 -0.000000 0.245401 0.482018 -0.340010
5.150000 218.045417 419.740642 -0.000000 0.139065 0.150895 -0.099513 -31.342296 61.724393 -0.000000 0.253954 0.480203 -0.340105
5.155000 205.845522 369.643643 -0.000000 0.131005 0.154314 -0.099497 -36.912896 67.605694 -0.000000 0.262394 0.477370 -0.340419
5.160000 190.168773 317.160479 -0.000000 0.123226 0.158400 -0.099574 -43.351974 71.804365 -0.000000 0.270279 0.473635 -0.341083
5.165000 171.104317 263.634311 -0.000000 0.115922 0.163078 -0.099719 -50.667098 74.904083 -0.000000 0.277771 0.469109 -0.341380
5.170000 148.915319 210.830302 -0.000000 0.109084 0.168288 -0.099911 -58.852910 77.530523 -0.000000 0.284857 0.464456 -0.341642
5.175000 124.559540 160.367282 -0.000000 0.102714 0.173793 -0.100083 -67.794375 80.382634 -0.000000 0.291494 0.459091 -0.342418
5.180000 99.222848 113.673850 -0.000000 0.096737 0.179823 -0.100263 -77.327363 84.231735 -0.000000 0.297575 0.452413 -0.342738
5.185000 73.794389 72.160925 -0.000000 0.091215 0.186160 -0.100307 -87.496939 89.652541 -0.000000 0.303255 0.445264 -0.343466
5.190000 49.389675 36.587568 -0.000000 0.086154 0.192840 -0.100331 -98.259856 97.183221 -0.000000 0.308389 0.437710 -0.343931
5.195000 27.017244 7.080326 -0.000000 0.081290 0.199754 -0.100266 -109.432531 107.389607 -0.000000 0.313032 0.429582 -0.344532
5.200000 7.303344 -16.632893 -0.000000 0.076337 0.206990 -0.099806 -120.896659 120.691007 -0.000000 0.317122 0.421052 -0.344934
5.205000 -9.464021 -35.110593 -0.000000 0.071818 0.214806 -0.100170 -132.532356 137.388878 -0.000000 0.320779 0.411910 -0.345169
5.210000 -23.251020 -49.037111 -0.000000 0.067778 0.223070 -0.100155 -144.270465 157.529334 -0.000000 0.323939 0.402344 -0.345535
5.215000 -34.269743 -59.050952 -0.000000 0.064119 0.231937 -0.100121 -155.785281 181.113187 -0.000000 0.326754 0.392492 -0.345696
5.220000 -42.733737 -65.720643 -0.000000 0.061062 0.241028 -0.100230 -167.014460 207.628047 -0.000000 0.329016 0.382289 -0.345816
5.225000 -48.995977 -69.409838 -0.000000 0.058480 0.250547 -0.100303 -177.523279 236.730985 -0.000000 0.330662 0.371774 -0.345671
5.230000 -53.355073 -70.363398 -0.000000 0.056342 0.260170 -0.100247 -186.970516 267.995066 -0.000000 0.331929 0.360721 -0.345772
5.235000 -55.943032 -68.791264 -0.000000 0.054832 0.270332 -0.100267 -195.354998 300.876540 -0.000000 0.332612 0.349711 -0.345761
5.240000 -56.774181 -64.911297 -0.000000 0.053825 0.280451 -0.100260 -202.783027 334.936501 -0.000000 0.332870 0.338544 -0.345777
5.245000 -55.924025 -58.940730 -0.000000 0.053318 0.290924 -0.100365 -208.697745 370.241057 -0.000000 0.332614 0.327259 -0.346153
5.250000 -53.356241 -51.349645 -0.000000 0.053325 0.301527 -0.100375 -213.120123 406.522113 -0.000000 0.331923 0.315917 -0.346158
5.255000 -49.156149 -42.664890 -0.000000 0.054001 0.312287 -0.100542 -215.905248 443.631951 -0.000000 0.330755 0.304660 -0.346606
5.260000 -43.511529 -33.387947 -0.000000 0.055313 0.323213 -0.100598 -216.700454 481.525917 -0.000000 0.328943 0.293521 -0.346590
5.265000 -36.633517 -23.942450 -0.000000 0.057371 0.334178 -0.100726 -215.154069 520.129437 -0.000000 0.326613 0.282439 -0.346437
5.270000 -28.694212 -14.683399 -0.000000 0.059733 0.345012 -0.100945 -211.587421 559.064569 -0.000000 0.323677 0.271566 -0.346397
5.275000 -19.882699 -5.819486 -0.000000 0.062826 0.355815 -0.101038 -205.398193 598.293140 -0.000000 0.320125 0.260950 -0.346158
5.280000 -10.343334 2.440226 -0.000000 0.066499 0.366480 -0.101188 -196.550413 637.485133 -0.000000 0.315995 0.250622 -0.345974
5.285000 -0.246552 9.929591 -0.000000 0.070776 0.376944 -0.101295 -184.379982 676.468996 -0.000000 0.311217 0.240403 -0.345929
5.290000 10.134179 16.514051 -0.000000 0.075535 0.387060 -0.101576 -169.526911 714.700226 -0.000000 0.305877 0.230517 -0.345688
5.295000 20.416839 22.101159 -0.000000 0.080978 0.396985 -0.101466 -151.164672 752.051136 -0.000000 0.299987 0.220929 -0.345512
5.300000 30.068816 26.643044 -0.000000 0.086854 0.406542 -0.101622 -130.116264 787.998140 -0.000000 0.293519 0.211840 -0.345485
5.305000 38.535683 30.086160 -0.000000 0.093251 0.415741 -0.101759 -105.986022 822.258649 -0.000000 0.286578 0.203131 -0.345359
5.310000 45.312417 32.396174 -0.000000 0.100406 0.424795 -0.101711 -78.077788 854.444429 -0.000000 0.279137 0.194991 -0.345195
5.315000 49.870876 33.832163 -0.000000 0.107206 0.433398 -0.101991 -49.482280 883.751401 -0.000000 0.271268 0.187413 -0.344876
5.320000 52.124160 34.407686 -0.000000 0.115030 0.441753 -0.102072 -16.763299 909.893726 -0.000000 0.262980 0.180205 -0.344644
5.325000 51.964522 34.628867 -0.000000 0.122938 0.449678 -0.102310 16.733688 932.202385 -0.000000 0.254277 0.173674 -0.344462
5.330000 49.610408 34.994539 -0.000000 0.130621 0.457133 -0.102859 49.754274 950.357394 -0.000000 0.245239 0.167554 -0.344285
5.335000 45.619778 35.845144 -0.000000 0.139406 0.464041 -0.102844 84.955316 963.812869 -0.000000 0.235845 0.162012 -0.344004
5.340000 40.367632 37.850476 -0.000000 0.147846 0.470177 -0.103457 117.302069 972.570505 -0.000000 0.226264 0.157039 -0.343879
5.345000 34.460488 41.200376 -0.000000 0.156705 0.475529 -0.103729 148.198861 976.330347 -0.000000 0.216520 0.152813 -0.343646
5.350000 28.389916 45.929966 -0.000000 0.166272 0.480140 -0.103584 178.207204 974.780730 -0.000000 0.206632 0.149222 -0.343494
5.355000 22.292212 51.930644 -0.000000 0.175279 0.484013 -0.104076 203.570653 968.456522 -0.000000 0.196619 0.146279 -0.343343
5.360000 16.414910 58.662145 -0.000000 0.184706 0.487014 -0.104297 226.502956 956.871567 -0.000000 0.186570 0.143920 -0.343330
5.365000 10.796814 65.499438 -0.000000 0.194717 0.489424 -0.104035 247.218784 939.814197 -0.000000 0.176544 0.142288 -0.343180
5.370000 5.163759 71.819316 -0.000000 0.204334 0.490983 -0.104030 263.089488 917.895250 -0.000000 0.166559 0.141343 -0.343216
5.375000 -0.484797 77.092182 -0.000000 0.214262 0.492026 -0.103976 275.945663 890.614284 -0.000000 0.156674 0.140911 -0.342854
5.380000 -6.356380 81.077516 -0.000000 0.223749 0.492399 -0.104074 283.984906 858.491794 -0.000000 0.146913 0.141237 -0.342934
5.385000 -12.271595 83.808579 -0.000000 0.233032 0.492025 -0.104219 288.508922 821.127240 -0.000000 0.137292 0.142906 -0.342926
5.390000 -18.093346 85.524175 -0.000000 0.242119 0.490853 -0.104336 289.034454 778.808324 -0.000000 0.127969 0.144804 -0.342944
5.395000 -23.487678 86.580614 -0.000000 0.250971 0.489084 -0.104374 286.256083 731.627687 -0.000000 0.119108 0.148336 -0.342936
5.400000 -28.249915 87.293226 -0.000000 0.259529 0.486591 -0.104489 279.620366 680.370593 -0.000000 0.110549 0.151460 -0.342890
5.405000 -32.240938 87.896259 -0.000000 0.267731 0.483317 -0.104330 268.873270 625.937353 -0.000000 0.102322 0.153619 -0.343251
5.410000 -35.030299 88.723516 -0.000000 0.275529 0.479519 -0.104269 256.763507 568.088216 -0.000000 0.094492 0.158267 -0.343154
5.415000 -36.829282 89.936324 -0.000000 0.282953 0.475099 -0.104140 242.330873 508.309187 -0.000000 0.087186 0.163498 -0.342944
5.420000 -37.728846 91.843523 -0.000000 0.290014 0.469739 -0.104052 226.313367 447.516021 -0.000000 0.080454 0.169364 -0.342722
5.425000 -38.022481 94.764425 -0.000000 0.296389 0.463746 -0.103942 208.692338 387.082464 -0.000000 0.074328 0.175846 -0.342446
5.430000 -37.818747 99.111410 -0.000000 0.302581 0.457226 -0.103629 190.373689 327.882770 -0.000000 0.068800 0.182858 -0.342181
